<svg xmlns="http://www.w3.org/2000/svg" viewBox="0 0 512 512">
  <title>GitHub</title>
  <path fill="#000" d="M256 70.7c-102.6 0-186 83.2-186 186 0 82 53.4 151.7 127.2 176.3 9.3 1.7 12.3-4 12.3-9v-34.6c-51.7 11.3-62.5-22-62.5-22-8.4-21.4-20.6-27-20.6-27-17-11.6 1.3-11.4 1.3-11.4 18.7 1.3 28.5 19.2 28.5 19.2 16.6 28.4 43.5 20.2 54 15.4 1.8-12 6.6-20.2 12-25-41.4-4.6-84.8-20.5-84.8-91.8 0-20.3 7.3-37 19.2-50-2-4.6-8.3-23.5 1.8-49 0 0 15.6-5 51 19 15-4 30.8-6.2 46.6-6.3 15.8 0 31.7 2 46.6 6.3 35.5-24 51-19 51-19 10.2 25.5 4 44.4 2 49 11.8 13 19 29.7 19 50 0 71.4-43.5 87-85 91.7 6.8 5.8 13 17 13 34.4v51c0 4.8 3 10.6 12.3 8.8 73.7-24.6 127-94.3 127-176.4C442 154 358.5 70.7 256 70.7z"/>
</svg>
