<svg xmlns="http://www.w3.org/2000/svg" width="180" height="180" viewBox="0 0 180 88.8" fill="#d91b77">
<path d="M0,86.4V57.6H28.8V28.8H57.6V0H86.4V86.4"/>
<path d="M93.6,0C141.318,0,180,38.683,180,86.399H93.6V0"/>
<path d="M580.505,50.198c-4.061,0-9.504,3.283-11.405,6.652v29.549h-6.479V44.668h6.479v6.653
	c3.37-4.319,8.208-7.603,13.911-7.603v6.653C582.232,50.284,581.455,50.198,580.505,50.198"/>
<path d="M551.648,86.399H519.854V81.303L542.836,50.371H519.854V44.668H551.303V49.594L528.147,80.697H551.648"/>
<path d="M502.401,44.668h6.479v41.731h-6.479"/>
<circle cx="505.65" cy="34.35" r="4.37"/>
</svg>
